/usr/bin/start-video-rec.sh: line 93: kill: (522) - No such process
ffmpeg version 2.8.17-0ubuntu0.1 Copyright (c) 2000-2020 the FFmpeg developers
  built with gcc 5.4.0 (Ubuntu 5.4.0-6ubuntu1~16.04.12) 20160609
  configuration: --prefix=/usr --extra-version=0ubuntu0.1 --build-suffix=-ffmpeg --toolchain=hardened --libdir=/usr/lib/x86_64-linux-gnu --incdir=/usr/include/x86_64-linux-gnu --cc=cc --cxx=g++ --enable-gpl --enable-shared --disable-stripping --disable-decoder=libopenjpeg --disable-decoder=libschroedinger --enable-avresample --enable-avisynth --enable-gnutls --enable-ladspa --enable-libass --enable-libbluray --enable-libbs2b --enable-libcaca --enable-libcdio --enable-libflite --enable-libfontconfig --enable-libfreetype --enable-libfribidi --enable-libgme --enable-libgsm --enable-libmodplug --enable-libmp3lame --enable-libopenjpeg --enable-libopus --enable-libpulse --enable-librtmp --enable-libschroedinger --enable-libshine --enable-libsnappy --enable-libsoxr --enable-libspeex --enable-libssh --enable-libtheora --enable-libtwolame --enable-libvorbis --enable-libvpx --enable-libwavpack --enable-libwebp --enable-libx265 --enable-libxvid --enable-libzvbi --enable-openal --enable-opengl --enable-x11grab --enable-libdc1394 --enable-libiec61883 --enable-libzmq --enable-frei0r --enable-libx264 --enable-libopencv
  libavutil      54. 31.100 / 54. 31.100
  libavcodec     56. 60.100 / 56. 60.100
  libavformat    56. 40.101 / 56. 40.101
  libavdevice    56.  4.100 / 56.  4.100
  libavfilter     5. 40.101 /  5. 40.101
  libavresample   2.  1.  0 /  2.  1.  0
  libswscale      3.  1.101 /  3.  1.101
  libswresample   1.  2.101 /  1.  2.101
  libpostproc    53.  3.100 / 53.  3.100
Input #0, matroska,webm, from '/home/seluser/videos/vid_chrome_or_firefox_40000.mkv':
  Metadata:
    ENCODER         : Lavf56.40.101
  Duration: 00:00:51.40, start: 0.000000, bitrate: 211 kb/s
    Stream #0:0: Video: h264 (Constrained Baseline), yuv420p, 1366x768, SAR 1:1 DAR 683:384, 10 fps, 10 tbr, 1k tbn, 20 tbc (default)
    Metadata:
      ENCODER         : Lavc56.60.100 libx264
      DURATION        : 00:00:51.400000000
[libx264 @ 0xaad660] using SAR=1/1
[libx264 @ 0xaad660] using cpu capabilities: MMX2 SSE2Fast SSSE3 SSE4.2 AVX FMA3 AVX2 LZCNT BMI2
[libx264 @ 0xaad660] profile Constrained Baseline, level 3.2
[libx264 @ 0xaad660] 264 - core 148 r2643 5c65704 - H.264/MPEG-4 AVC codec - Copyleft 2003-2015 - http://www.videolan.org/x264.html - options: cabac=0 ref=1 deblock=0:0:0 analyse=0:0 me=dia subme=0 psy=1 psy_rd=1.00:0.00 mixed_ref=0 me_range=16 chroma_me=1 trellis=0 8x8dct=0 cqm=0 deadzone=21,11 fast_pskip=1 chroma_qp_offset=0 threads=3 lookahead_threads=1 sliced_threads=0 nr=0 decimate=1 interlaced=0 bluray_compat=0 constrained_intra=0 bframes=0 weightp=0 keyint=250 keyint_min=10 scenecut=0 intra_refresh=0 rc=crf mbtree=0 crf=23.0 qcomp=0.60 qpmin=0 qpmax=69 qpstep=4 ip_ratio=1.40 aq=0
Output #0, mp4, to '/home/seluser/videos/vid_chrome_or_firefox_40000.mp4':
  Metadata:
    encoder         : Lavf56.40.101
    Stream #0:0: Video: h264 (libx264) ([33][0][0][0] / 0x0021), yuv420p, 1366x768 [SAR 1:1 DAR 683:384], q=-1--1, 10 fps, 10240 tbn, 10 tbc (default)
    Metadata:
      DURATION        : 00:00:51.400000000
      encoder         : Lavc56.60.100 libx264
Stream mapping:
  Stream #0:0 -> #0:0 (h264 (native) -> h264 (libx264))
Press [q] to stop, [?] for help
frame=   34 fps=0.0 q=10.0 size=      53kB time=00:00:03.00 bitrate= 145.2kbits/s    
frame=  118 fps=117 q=15.0 size=     217kB time=00:00:11.40 bitrate= 156.1kbits/s    
frame=  197 fps=130 q=15.0 size=     577kB time=00:00:19.30 bitrate= 245.1kbits/s    
frame=  243 fps=121 q=9.0 size=     749kB time=00:00:23.90 bitrate= 256.9kbits/s    
frame=  273 fps=107 q=9.0 size=     869kB time=00:00:26.90 bitrate= 264.5kbits/s    
frame=  302 fps= 99 q=9.0 size=     870kB time=00:00:29.80 bitrate= 239.1kbits/s    
frame=  333 fps= 93 q=9.0 size=     871kB time=00:00:32.90 bitrate= 216.9kbits/s    
frame=  345 fps= 82 q=9.0 size=     872kB time=00:00:34.10 bitrate= 209.4kbits/s    
frame=  348 fps= 71 q=9.0 size=     872kB time=00:00:34.40 bitrate= 207.6kbits/s    
frame=  358 fps= 65 q=9.0 size=     872kB time=00:00:35.40 bitrate= 201.8kbits/s    
frame=  385 fps= 64 q=10.0 size=     874kB time=00:00:38.10 bitrate= 188.0kbits/s    
frame=  407 fps= 62 q=15.0 size=     932kB time=00:00:40.30 bitrate= 189.5kbits/s    
frame=  428 fps= 61 q=9.0 size=     952kB time=00:00:42.40 bitrate= 184.0kbits/s    
frame=  443 fps= 58 q=10.0 size=    1147kB time=00:00:43.90 bitrate= 214.0kbits/s    
frame=  463 fps= 57 q=9.0 size=    1153kB time=00:00:45.90 bitrate= 205.8kbits/s    
frame=  485 fps= 56 q=9.0 size=    1154kB time=00:00:48.10 bitrate= 196.6kbits/s    
frame=  509 fps= 55 q=13.0 size=    1302kB time=00:00:50.50 bitrate= 211.2kbits/s    
frame=  514 fps= 55 q=-1.0 Lsize=    1320kB time=00:00:51.40 bitrate= 210.4kbits/s    
video:1317kB audio:0kB subtitle:0kB other streams:0kB global headers:0kB muxing overhead: 0.214797%
[libx264 @ 0xaad660] frame I:3     Avg QP:11.00  size: 87966
[libx264 @ 0xaad660] frame P:511   Avg QP:10.21  size:  2122
[libx264 @ 0xaad660] mb I  I16..4: 100.0%  0.0%  0.0%
[libx264 @ 0xaad660] mb P  I16..4:  1.9%  0.0%  0.0%  P16..4:  2.1%  0.0%  0.0%  0.0%  0.0%    skip:96.1%
[libx264 @ 0xaad660] coded y,uvDC,uvAC intra: 14.0% 9.1% 8.3% inter: 0.8% 1.0% 0.5%
[libx264 @ 0xaad660] i16 v,h,dc,p: 72% 26%  1%  1%
[libx264 @ 0xaad660] i8c dc,h,v,p: 81% 16%  2%  1%
[libx264 @ 0xaad660] kb/s:209.82
